<svg xmlns="http://www.w3.org/2000/svg" width="16" height="16" fill="none"><path fill="#fff" d="M8.685 1.334c.487-.002.973.003 1.46.015l.13.004.474.02c.71.034 1.193.146 1.618.31.44.17.81.399 1.181.77.339.333.601.736.769 1.18.164.425.276.91.31 1.619l.02.475.004.129c.012.486.017.972.015 1.459v1.37c.002.487-.003.973-.015 1.46l-.004.129c-.005.15-.012.297-.02.475-.033.709-.146 1.193-.31 1.618-.167.445-.43.848-.769 1.181a3.277 3.277 0 0 1-1.181.769c-.425.164-.909.276-1.618.31l-.475.02-.13.004c-.486.011-.972.017-1.459.015h-1.37a52.59 52.59 0 0 1-1.459-.015l-.13-.004a39.564 39.564 0 0 1-.474-.02c-.71-.033-1.193-.146-1.619-.31a3.26 3.26 0 0 1-1.18-.769 3.27 3.27 0 0 1-.77-1.181c-.164-.425-.276-.909-.31-1.618a49.738 49.738 0 0 1-.02-.475l-.003-.13a52.711 52.711 0 0 1-.017-1.459v-1.37c-.001-.487.003-.973.015-1.459l.005-.13c.005-.149.012-.297.02-.474.033-.71.145-1.193.31-1.619.167-.445.43-.847.77-1.18.333-.34.736-.602 1.18-.77.426-.164.91-.276 1.62-.31l.474-.02.13-.003c.485-.012.971-.018 1.458-.017l1.37.001ZM8 4.667a3.333 3.333 0 1 0 0 6.666 3.333 3.333 0 0 0 0-6.666Zm0 1.334A2 2 0 1 1 8 10a2 2 0 1 1 0-4Zm3.5-2.334a.833.833 0 0 0 0 1.666.833.833 0 0 0 0-1.667v.001Z"/></svg>