<svg aria-hidden="true" style="position: absolute; width: 0; height: 0; overflow: hidden;" version="1.1" xmlns="http://www.w3.org/2000/svg" xmlns:xlink="http://www.w3.org/1999/xlink">
<defs>
<symbol id="icon-facebook" viewBox="0 0 32 32">
<path d="M21.33 5.314h2.92v-5.088c-1.238-0.144-2.672-0.226-4.125-0.226-0.046 0-0.092 0-0.138 0l0.007-0c-4.212 0-7.094 2.65-7.094 7.52v4.48h-4.65v5.688h4.648v14.312h5.698v-14.31h4.46l0.708-5.69h-5.17v-3.92c0.002-1.644 0.444-2.768 2.736-2.768z"></path>
</symbol>
<symbol id="icon-instagram" viewBox="0 0 32 32">
<path d="M17.37 2.668c0.974-0.004 1.946 0.006 2.92 0.030l0.26 0.008 0.948 0.040c1.42 0.068 2.386 0.292 3.236 0.62 0.88 0.34 1.62 0.798 2.362 1.54 0.678 0.666 1.202 1.472 1.538 2.36 0.328 0.85 0.552 1.82 0.62 3.238l0.040 0.95 0.008 0.258c0.024 0.972 0.034 1.944 0.030 2.918v2.74c0.004 0.974-0.006 1.946-0.030 2.92l-0.008 0.258c-0.010 0.3-0.024 0.594-0.040 0.95-0.066 1.418-0.292 2.386-0.62 3.236-0.334 0.89-0.86 1.696-1.538 2.362-0.65 0.661-1.438 1.184-2.317 1.523l-0.045 0.015c-0.85 0.328-1.818 0.552-3.236 0.62l-0.95 0.040-0.26 0.008c-0.972 0.022-1.944 0.034-2.918 0.030h-2.74c-0.112 0-0.245 0.001-0.378 0.001-0.893 0-1.784-0.011-2.672-0.033l0.132 0.003-0.26-0.008c-0.475-0.017-0.805-0.031-1.134-0.047l0.186 0.007c-1.42-0.066-2.386-0.292-3.238-0.62-0.924-0.353-1.711-0.876-2.359-1.537l-0.001-0.001c-0.662-0.65-1.186-1.438-1.525-2.317l-0.015-0.045c-0.328-0.85-0.552-1.818-0.62-3.236-0.007-0.102-0.022-0.433-0.034-0.764l-0.006-0.186-0.006-0.26c-0.022-0.8-0.034-1.742-0.034-2.687 0-0.081 0-0.162 0-0.244l-0 0.013v-2.74c-0.002-0.974 0.006-1.946 0.030-2.918l0.010-0.26c0.010-0.298 0.024-0.594 0.040-0.948 0.066-1.42 0.29-2.386 0.62-3.238 0.334-0.89 0.86-1.694 1.54-2.36 0.666-0.68 1.472-1.204 2.36-1.54 0.852-0.328 1.82-0.552 3.24-0.62l0.948-0.040 0.26-0.006c0.97-0.024 1.942-0.036 2.916-0.034l2.74 0.002zM16 9.334c-3.682 0-6.666 2.984-6.666 6.666s2.984 6.666 6.666 6.666v0c3.682 0 6.666-2.984 6.666-6.666s-2.984-6.666-6.666-6.666v0zM16 12.002c0.027-0.001 0.058-0.001 0.089-0.001 2.209 0 4 1.791 4 4s-1.791 4-4 4c-0.031 0-0.063-0-0.094-0.001l0.005 0c-2.209 0-4-1.791-4-4s1.791-4 4-4v0zM23 7.334c-0.92 0-1.666 0.746-1.666 1.666s0.746 1.666 1.666 1.666v0c0.921 0 1.667-0.746 1.667-1.667s-0.746-1.667-1.667-1.667v0 0.002z"></path>
</symbol>
<symbol id="icon-tiktok" viewBox="0 0 32 32">
<path d="M21.334 10.994v9.672c0 0 0 0 0 0 0 4.787-3.881 8.668-8.668 8.668s-8.668-3.881-8.668-8.668c0-4.787 3.881-8.668 8.668-8.668 0.71 0 1.399 0.085 2.059 0.246l-0.059-0.012v4.218c-0.585-0.284-1.272-0.449-1.998-0.449-2.577 0-4.666 2.089-4.666 4.666s2.089 4.666 4.666 4.666c2.577 0 4.666-2.089 4.666-4.666 0-0 0-0 0-0.001v0-18h4c0 0.001 0 0.001 0 0.002 0 3.682 2.984 6.666 6.666 6.666v0 4c-0.005 0-0.010 0-0.016 0-2.527 0-4.847-0.882-6.67-2.356l0.020 0.016z"></path>
</symbol>
<symbol id="icon-youtube" viewBox="0 0 32 32">
<path d="M16.326 5.334c0.712 0.004 2.492 0.020 4.386 0.096l0.672 0.030c1.906 0.090 3.81 0.244 4.754 0.506 1.26 0.356 2.25 1.388 2.584 2.696 0.534 2.080 0.6 6.136 0.608 7.12l0.002 0.202v0.232c-0.010 0.982-0.076 5.040-0.61 7.12-0.33 1.299-1.306 2.311-2.557 2.687l-0.027 0.007c-0.944 0.264-2.848 0.418-4.754 0.508l-0.672 0.030c-1.894 0.074-3.674 0.094-4.386 0.096h-0.654c-1.506-0.008-7.808-0.076-9.814-0.634-1.278-0.384-2.254-1.397-2.578-2.67l-0.006-0.026c-0.532-2.080-0.6-6.136-0.608-7.118v-0.434c0.008-0.984 0.076-5.040 0.608-7.12 0.33-1.3 1.307-2.313 2.56-2.687l0.027-0.007c2.004-0.56 8.306-0.626 9.814-0.634h0.652zM13.332 11.334v9.332l8-4.666-8-4.666z"></path>
</symbol>
</defs>
</svg>
